<svg width="512" height="512" viewBox="0 0 512 512" fill="none" xmlns="http://www.w3.org/2000/svg">
<path d="M480.197 52.6436H31.8029C19.8942 52.6436 10.2398 62.2973 10.2398 74.206V353.463C10.2398 365.372 19.8942 375.025 31.8029 375.025H480.197C492.106 375.025 501.76 365.372 501.76 353.463V74.2061C501.76 62.2973 492.106 52.6436 480.197 52.6436Z" fill="#E7E3E6"/>
<path d="M474.511 78.4688H37.4989V321.659H474.511V78.4688Z" fill="#656766"/>
<path d="M75.6383 90.7822C74.49 90.7822 73.3416 91.2205 72.4651 92.0971C70.7119 93.8503 70.7119 96.6904 72.4651 98.4436L86.3208 112.299L72.4651 126.155C70.7119 127.908 70.7119 130.748 72.4651 132.502C74.2183 134.255 77.0584 134.255 78.8115 132.502L95.8406 115.473C97.5938 113.719 97.5938 110.879 95.8406 109.126L78.8114 92.0971C77.9349 91.2205 76.7866 90.7822 75.6383 90.7822Z" fill="#85BD57"/>
<path d="M115.021 103.32C112.543 103.32 110.533 105.331 110.533 107.808C110.533 110.286 112.542 112.296 115.021 112.296L139.108 112.299C141.586 112.299 143.596 110.292 143.596 107.811C143.596 105.334 141.587 103.323 139.108 103.323L115.021 103.32Z" fill="#53B1E2"/>
<path d="M404.243 459.356C425.478 459.356 438.006 434.747 424.817 418.104C415.021 405.741 401.478 396.365 385.558 391.79L319.074 372.67C312.181 363.888 310.508 353.452 312.322 341.911L324.08 296.15C330.303 295.885 333.004 292.879 332.885 287.702C332.765 282.829 334.447 278.142 336.924 273.958C337.32 273.282 337.572 272.647 337.572 272.144C337.585 269.681 334.209 265.59 334.633 263.167C335.427 258.664 341.888 253.659 340.552 249.29C337.135 238.101 328.078 243.384 328.078 243.384C328.078 243.384 335.837 190.169 328.078 174.902C322.715 164.362 315.672 155.994 307.542 149.638L307.502 149.598C294.605 137.721 277.352 137.959 275.816 128.532C275.816 128.532 273.26 129.895 273.631 134.954C273.737 136.489 274.108 138.343 274.902 140.607C270.638 138.582 267.924 136.304 266.256 134.053C261.423 127.512 265.21 121.104 265.21 121.104C234.888 121.964 222.177 141.389 221.792 141.998L221.779 142.011C206.327 148.975 192.795 160.178 183.923 174.902C175.092 189.573 183.923 243.384 183.923 243.384C183.923 243.384 174.866 238.101 171.45 249.29C170.113 253.659 176.574 258.664 177.368 263.167C177.792 265.59 174.416 269.681 174.416 272.143C174.416 272.647 174.668 273.282 175.078 273.958C177.554 278.142 179.223 282.829 179.117 287.702C178.997 292.879 181.699 295.885 187.922 296.15L199.68 341.911C202.754 353.169 200.932 363.503 192.927 372.67L126.444 391.79C110.525 396.365 96.9784 405.74 87.1803 418.102C73.9896 434.744 86.5178 459.356 107.753 459.356H404.243Z" fill="#EC6E62"/>
</svg>
