<svg width="512" height="512" viewBox="0 0 512 512" fill="none" xmlns="http://www.w3.org/2000/svg">
<path d="M471.17 100.1C459.049 87.8083 444.625 78.025 428.722 71.3087C412.819 64.5925 395.749 61.0749 378.486 60.9569C378.07 60.9569 377.66 60.9509 377.243 60.9509C348.009 60.907 319.602 70.6452 296.543 88.6149C291.507 68.1029 282.161 50.8969 268.643 37.3749C236.364 5.09992 177.855 7.48792 137.159 26.1429C132.788 23.1567 127.804 21.1872 122.573 20.379C117.341 19.5709 111.995 19.9447 106.927 21.4729C95.664 24.6999 86.133 33.0799 83.209 42.3379C69.9342 84.1476 63.9073 127.919 65.389 171.761C65.4334 173.05 65.8329 174.301 66.5434 175.377C67.2539 176.453 68.2478 177.312 69.4155 177.859C70.5832 178.406 71.8793 178.62 73.1609 178.477C74.4424 178.334 75.6595 177.84 76.678 177.049C77.471 176.433 78.919 175.298 80.754 173.815C83.8274 197.508 93.7938 219.775 109.415 237.852C114.087 243.288 119.256 248.277 124.856 252.752L122.243 275.844C42.784 288.73 2.5 330.853 2.5 401.123V458.533C2.51297 469.395 6.8337 479.808 14.5143 487.488C22.195 495.168 32.6083 499.488 43.47 499.5H322.554C333.416 499.488 343.83 495.167 351.51 487.487C359.191 479.806 363.511 469.392 363.523 458.53V457.011C368.418 459.054 373.708 459.979 379.006 459.716C384.304 459.454 389.476 458.011 394.145 455.493C398.814 452.976 402.862 449.447 405.992 445.165C409.123 440.883 411.258 435.956 412.24 430.743C416.032 429.917 419.428 427.82 421.865 424.799C424.302 421.779 425.634 418.016 425.64 414.135V352.862C427.901 346.803 440.123 315.882 461.183 295.331C493.242 264.045 509.498 229.688 509.498 193.212C509.542 175.934 506.18 158.817 499.604 142.84C493.027 126.863 483.365 112.339 471.17 100.1ZM96.559 46.5549C97.859 42.4279 103.165 37.1109 110.777 34.9329C114.385 33.8321 118.216 33.685 121.897 34.5059C125.579 35.3268 128.985 37.0877 131.783 39.6169C132.828 40.5108 134.114 41.077 135.479 41.2447C136.844 41.4124 138.228 41.1742 139.459 40.5599C170.638 24.9999 228.259 16.7999 258.737 47.2739C271.937 60.4739 280.588 77.9209 284.499 99.1619C276.023 107.496 268.696 116.923 262.709 127.192C261.924 124.741 261.072 121.952 260.151 118.775C254.1 97.9159 238.6 82.8599 220.663 80.4199C181.787 75.1329 158.323 76.4459 120.433 81.3869C119.142 81.5552 117.924 82.0802 116.915 82.9028C115.905 83.7255 115.146 84.8133 114.721 86.0439C110.232 99.0439 97.616 134.55 93.201 142.564C91.566 145.533 85.584 151.292 79.167 156.869C79.3723 119.431 85.2359 82.2397 96.559 46.5549ZM243.659 275.829L240.359 251.399C244.963 247.574 249.257 243.39 253.2 238.887C259.726 256.36 269.821 272.281 282.841 285.637C270.106 281.186 256.992 277.903 243.662 275.829H243.659ZM93.97 162.408C98.898 157.8 103.442 152.99 105.47 149.319C110.454 140.269 122.256 106.968 126.533 94.7189C160.672 90.4039 182.963 89.4189 218.781 94.2919C233.92 96.3509 243.287 110.868 246.709 122.673C248.772 130.162 251.273 137.523 254.199 144.718C244.403 169.5 242.361 196.671 248.343 222.639C230.943 246.106 206.803 259.512 181.754 259.512C132.083 259.512 94.83 208.592 93.97 162.408ZM181.749 273.508C197.884 273.414 213.69 268.927 227.468 260.53L230.389 282.142C229.022 293.199 202.045 303.786 183.042 307.842C163.589 303.523 136.155 292.779 135.605 282.266L137.942 261.623C151.257 269.341 166.359 273.439 181.749 273.512V273.508ZM202.841 434.251L183.012 460.413L163.183 434.252L168.683 318.495C175.939 320.659 181.228 321.779 181.583 321.853C182.055 321.952 182.536 322.002 183.018 322.002C183.479 322.002 183.939 321.956 184.391 321.866C184.743 321.795 190.066 320.718 197.365 318.572L202.841 434.251ZM322.554 485.5H43.47C36.3195 485.492 29.4642 482.648 24.4081 477.592C19.352 472.536 16.5079 465.68 16.5 458.53V401.12C16.5 338.278 51.427 301.838 123.21 289.868C126.901 298.668 136.927 306.452 153.158 313.08C153.735 313.316 154.311 313.546 154.886 313.771L149.078 436.125C149 437.764 149.501 439.378 150.491 440.686L177.433 476.231C178.086 477.092 178.929 477.791 179.897 478.272C180.865 478.753 181.931 479.003 183.012 479.003C184.093 479.003 185.159 478.753 186.127 478.272C187.095 477.791 187.938 477.092 188.591 476.231L215.532 440.686C216.522 439.378 217.022 437.764 216.945 436.126L211.152 313.875C211.582 313.706 212.012 313.534 212.443 313.359C228.686 306.769 238.804 298.884 242.663 289.848C271.77 294.698 295.097 303.688 312.115 316.606C319.294 327.793 324.919 339.904 328.837 352.606V414.131C328.843 418.012 330.174 421.775 332.612 424.795C335.049 427.816 338.445 429.913 342.237 430.739C343.326 436.507 345.828 441.916 349.521 446.479V458.526C349.514 465.677 346.671 472.532 341.615 477.589C336.56 482.646 329.705 485.491 322.554 485.5ZM411.642 414.135C411.642 414.931 411.326 415.694 410.763 416.256C410.201 416.819 409.438 417.135 408.642 417.135H345.837C345.041 417.135 344.278 416.819 343.716 416.256C343.153 415.694 342.837 414.931 342.837 414.135V358.625H411.642V414.135ZM377.242 445.76C372.735 445.754 368.341 444.342 364.675 441.72C361.008 439.099 358.251 435.398 356.787 431.135H397.7C396.236 435.4 393.478 439.101 389.811 441.723C386.143 444.346 381.748 445.758 377.239 445.763L377.242 445.76ZM451.41 285.309C430.726 305.493 418.21 333.561 413.81 344.625H341C337.08 332.846 325.65 303.841 303.184 285.365C274.792 262.014 258.684 228.056 258.984 192.199C259.362 161.045 271.975 131.288 294.101 109.352C316.226 87.4163 346.091 75.0602 377.247 74.9509C377.615 74.9509 377.988 74.9509 378.357 74.9559C442.95 75.5539 495.5 128.6 495.5 193.212C495.5 225.773 480.665 256.76 451.407 285.312L451.41 285.309ZM460.844 170.121C457.448 168.32 453.818 167.001 450.058 166.2C449.157 163.672 448.125 161.193 446.967 158.773C448.997 155.643 450.614 152.264 451.778 148.719C452.554 146.328 452.65 143.768 452.056 141.325C451.463 138.882 450.203 136.652 448.416 134.883L434.416 120.883C432.672 119.129 430.484 117.884 428.085 117.279C425.687 116.674 423.17 116.734 420.803 117.451C417.128 118.579 413.627 120.213 410.403 122.307C407.979 121.155 405.496 120.13 402.966 119.235C402.188 115.587 400.942 112.055 399.259 108.727C398.116 106.488 396.373 104.61 394.225 103.302C392.078 101.995 389.609 101.309 387.095 101.322H367.294C364.82 101.315 362.391 101.982 360.267 103.25C358.142 104.518 356.403 106.341 355.236 108.522C353.435 111.918 352.116 115.549 351.315 119.309C348.788 120.21 346.309 121.242 343.888 122.4C340.757 120.37 337.377 118.752 333.832 117.588C331.441 116.814 328.882 116.719 326.44 117.313C323.998 117.908 321.768 119.168 320 120.954L306 134.954C304.247 136.698 303.001 138.887 302.396 141.285C301.792 143.683 301.851 146.201 302.568 148.568C303.697 152.243 305.331 155.743 307.425 158.968C306.272 161.392 305.247 163.874 304.354 166.405C300.707 167.182 297.175 168.428 293.847 170.111C291.607 171.254 289.729 172.997 288.421 175.144C287.113 177.292 286.428 179.761 286.441 182.276V202.069C286.434 204.543 287.1 206.972 288.369 209.096C289.637 211.221 291.46 212.96 293.641 214.127C297.037 215.928 300.668 217.248 304.428 218.048C305.328 220.576 306.36 223.055 307.519 225.475C305.488 228.605 303.871 231.985 302.707 235.53C301.932 237.921 301.835 240.481 302.429 242.924C303.022 245.366 304.283 247.596 306.069 249.365L320.069 263.365C321.814 265.118 324.002 266.364 326.401 266.969C328.799 267.574 331.317 267.515 333.684 266.798C337.359 265.668 340.859 264.034 344.084 261.941C346.508 263.093 348.99 264.119 351.521 265.013C352.298 268.661 353.544 272.193 355.228 275.521C356.372 277.759 358.115 279.636 360.263 280.943C362.41 282.249 364.878 282.934 367.392 282.921H387.185C389.659 282.928 392.088 282.261 394.212 280.993C396.336 279.724 398.075 277.902 399.242 275.721C401.044 272.325 402.363 268.694 403.163 264.934C405.691 264.033 408.17 263.001 410.591 261.843C413.721 263.874 417.101 265.491 420.646 266.655C423.037 267.43 425.597 267.526 428.04 266.932C430.482 266.339 432.712 265.078 434.481 263.292L448.481 249.292C450.234 247.548 451.48 245.36 452.085 242.962C452.69 240.564 452.631 238.047 451.914 235.68C450.785 232.005 449.151 228.505 447.057 225.28C448.209 222.856 449.234 220.374 450.128 217.843C453.776 217.066 457.307 215.82 460.635 214.137C462.875 212.994 464.753 211.251 466.061 209.103C467.368 206.955 468.054 204.487 468.041 201.972V182.183C468.048 179.709 467.381 177.28 466.113 175.155C464.844 173.031 463.022 171.292 460.841 170.124L460.844 170.121ZM454.044 201.784C451.819 202.882 449.462 203.69 447.031 204.19C444.728 204.7 442.592 205.789 440.827 207.354C439.062 208.92 437.726 210.91 436.945 213.136C436.195 215.266 435.331 217.354 434.357 219.392C433.351 221.508 432.903 223.847 433.054 226.185C433.205 228.524 433.951 230.785 435.221 232.754C436.606 234.852 437.694 237.133 438.452 239.53L424.72 253.262C422.368 252.465 420.129 251.37 418.056 250.003C416.065 248.734 413.783 247.994 411.425 247.854C409.068 247.714 406.714 248.178 404.587 249.203C402.551 250.181 400.465 251.049 398.336 251.803C396.131 252.589 394.162 253.925 392.618 255.685C391.073 257.445 390.003 259.569 389.509 261.858C389.004 264.32 388.16 266.701 387 268.931H367.58C366.488 266.704 365.682 264.348 365.18 261.919C364.67 259.615 363.581 257.48 362.015 255.714C360.45 253.949 358.459 252.613 356.233 251.832C354.103 251.082 352.014 250.218 349.977 249.244C347.861 248.238 345.523 247.788 343.184 247.939C340.846 248.09 338.584 248.836 336.615 250.106C334.517 251.491 332.236 252.579 329.839 253.338L316.1 239.606C316.897 237.255 317.991 235.016 319.357 232.944C320.627 230.953 321.367 228.671 321.507 226.313C321.647 223.956 321.182 221.602 320.157 219.475C319.179 217.438 318.311 215.351 317.557 213.221C316.771 211.016 315.435 209.048 313.675 207.504C311.916 205.96 309.792 204.89 307.504 204.396C305.041 203.892 302.66 203.048 300.429 201.89V182.469C302.654 181.371 305.009 180.562 307.439 180.062C309.743 179.553 311.879 178.464 313.644 176.898C315.409 175.333 316.746 173.342 317.527 171.116C318.277 168.986 319.141 166.897 320.115 164.86C321.121 162.744 321.57 160.405 321.419 158.067C321.268 155.728 320.522 153.467 319.252 151.498C317.866 149.4 316.779 147.119 316.02 144.722L329.753 130.99C332.104 131.787 334.343 132.882 336.416 134.248C338.407 135.518 340.689 136.258 343.047 136.398C345.404 136.538 347.758 136.073 349.885 135.048C351.921 134.069 354.008 133.202 356.137 132.448C358.342 131.661 360.31 130.325 361.855 128.566C363.4 126.806 364.47 124.681 364.964 122.393C365.468 119.93 366.311 117.549 367.47 115.318H386.9C387.994 117.545 388.802 119.901 389.306 122.33C389.815 124.634 390.905 126.769 392.47 128.534C394.036 130.299 396.026 131.636 398.252 132.417C400.382 133.167 402.471 134.031 404.509 135.005C406.625 136.011 408.963 136.46 411.301 136.309C413.64 136.158 415.901 135.413 417.87 134.143C419.968 132.757 422.249 131.669 424.647 130.911L438.379 144.643C437.582 146.993 436.488 149.232 435.122 151.305C433.852 153.296 433.111 155.578 432.971 157.935C432.831 160.293 433.296 162.647 434.322 164.774C435.3 166.81 436.168 168.898 436.922 171.028C437.709 173.233 439.045 175.201 440.804 176.745C442.563 178.29 444.688 179.36 446.976 179.854C449.439 180.356 451.82 181.197 454.051 182.354L454.044 201.784ZM377.244 147.951C368.507 147.951 359.967 150.542 352.702 155.396C345.438 160.25 339.776 167.149 336.432 175.22C333.089 183.292 332.214 192.174 333.919 200.743C335.623 209.312 339.831 217.183 346.009 223.361C352.187 229.539 360.058 233.746 368.627 235.45C377.196 237.155 386.078 236.28 394.149 232.936C402.221 229.593 409.12 223.93 413.974 216.666C418.828 209.401 421.418 200.861 421.418 192.124C421.404 180.412 416.744 169.184 408.462 160.904C400.18 152.623 388.951 147.966 377.239 147.954L377.244 147.951ZM377.244 222.298C371.276 222.298 365.442 220.528 360.48 217.213C355.518 213.897 351.651 209.185 349.367 203.671C347.083 198.157 346.486 192.09 347.65 186.237C348.814 180.384 351.688 175.008 355.908 170.788C360.128 166.568 365.504 163.694 371.357 162.53C377.211 161.365 383.277 161.963 388.791 164.247C394.305 166.531 399.017 170.398 402.333 175.36C405.648 180.322 407.418 186.156 407.418 192.124C407.409 200.125 404.227 207.796 398.569 213.453C392.911 219.11 385.24 222.292 377.239 222.3L377.244 222.298Z" fill="url(#paint0_linear_2_4)"/>
<defs>
<linearGradient id="paint0_linear_2_4" x1="256.001" y1="16.8609" x2="256.001" y2="484.832" gradientUnits="userSpaceOnUse">
<stop stop-color="#00EFD1"/>
<stop offset="1" stop-color="#00ACEA"/>
</linearGradient>
</defs>
</svg>
