<svg width="512" height="512" viewBox="0 0 512 512" fill="none" xmlns="http://www.w3.org/2000/svg">
<path d="M427.979 266.185H413.066C413.236 262.758 413.33 259.353 413.33 256.001C413.33 248.452 412.911 240.999 412.118 233.657L473.795 203.978L471.892 207.919C471.435 208.865 471.169 209.892 471.109 210.941C471.049 211.99 471.196 213.04 471.542 214.032C471.888 215.024 472.426 215.939 473.125 216.723C473.825 217.507 474.671 218.146 475.617 218.602C476.564 219.059 477.59 219.325 478.639 219.385C479.688 219.445 480.739 219.298 481.731 218.952C482.723 218.606 483.637 218.068 484.421 217.369C485.205 216.67 485.844 215.823 486.301 214.877L498.156 190.323C498.67 189.259 498.941 188.094 498.951 186.913C498.961 185.731 498.71 184.562 498.214 183.49C497.719 182.417 496.992 181.468 496.086 180.709C495.18 179.951 494.117 179.403 492.974 179.104L466.594 172.212C464.541 171.676 462.359 171.977 460.528 173.049C458.698 174.122 457.368 175.878 456.832 177.93C456.295 179.983 456.596 182.165 457.669 183.996C458.741 185.827 460.497 187.157 462.55 187.693L467.858 189.079L409.642 217.093C391.387 121.676 307.322 49.3359 206.665 49.3359C92.709 49.3359 0 142.046 0 256.001C0 369.956 92.709 462.665 206.665 462.665C212.932 462.665 219.293 462.357 225.634 461.776C226.763 462.36 228.016 462.665 229.287 462.665H275.936C278.058 462.665 280.093 461.822 281.593 460.322C283.093 458.822 283.936 456.787 283.936 454.665V447.711C288.462 445.886 292.922 443.901 297.308 441.76V454.665C297.308 456.787 298.151 458.822 299.651 460.322C301.151 461.822 303.186 462.665 305.308 462.665H351.958C354.08 462.665 356.115 461.822 357.615 460.322C359.115 458.822 359.958 456.787 359.958 454.665V394.549C364.689 389.321 369.153 383.856 373.33 378.175V454.665C373.33 456.787 374.173 458.822 375.673 460.322C377.173 461.822 379.208 462.665 381.33 462.665H427.979C430.101 462.665 432.136 461.822 433.636 460.322C435.136 458.822 435.979 456.787 435.979 454.665V274.185C435.979 272.063 435.136 270.028 433.636 268.528C432.136 267.028 430.101 266.185 427.979 266.185ZM198.665 65.5159V248.004L16.177 248.086C20.234 149.265 99.855 69.6159 198.665 65.5159ZM16.183 264.085L192.678 264.006L103.262 416.118C52.911 383.49 18.854 327.778 16.183 264.085ZM267.936 446.665H237.287V345.047H267.936V446.665ZM343.958 446.665H313.308V313.616H343.958V446.665ZM359.958 369.346V305.617C359.958 303.495 359.115 301.46 357.615 299.96C356.115 298.46 354.08 297.617 351.958 297.617H305.308C303.186 297.617 301.151 298.46 299.651 299.96C298.151 301.46 297.308 303.495 297.308 305.617V423.774C292.938 426.14 288.478 428.334 283.936 430.35V337.048C283.936 334.926 283.093 332.891 281.593 331.391C280.093 329.891 278.058 329.048 275.936 329.048H229.287C227.165 329.048 225.13 329.891 223.63 331.391C222.13 332.891 221.287 334.926 221.287 337.048V446.085C216.392 446.46 211.497 446.666 206.665 446.666C174.289 446.666 143.777 438.545 117.045 424.247L213.562 260.055C214.285 258.826 214.666 257.427 214.666 256.001V65.5159C305.408 69.2809 379.965 136.761 394.68 224.293L383.344 229.748L368.897 207.422C367.88 205.851 366.345 204.687 364.559 204.131C362.773 203.574 360.848 203.662 359.119 204.377L242.809 252.563C241.838 252.965 240.957 253.554 240.214 254.297C239.471 255.04 238.882 255.922 238.48 256.892C238.078 257.863 237.871 258.903 237.871 259.954C237.871 261.004 238.078 262.044 238.48 263.015C238.882 263.986 239.471 264.867 240.214 265.61C240.957 266.353 241.839 266.942 242.81 267.344C243.781 267.746 244.821 267.953 245.872 267.953C246.922 267.953 247.962 267.746 248.933 267.344L359.085 221.709L373.741 244.36C374.799 245.995 376.418 247.188 378.293 247.715C380.169 248.242 382.172 248.067 383.927 247.223L396.748 241.054C397.132 245.987 397.332 250.971 397.332 256.001C397.332 259.347 397.228 262.754 397.043 266.185H381.332C379.21 266.185 377.175 267.028 375.675 268.528C374.175 270.028 373.332 272.063 373.332 274.185V348.637C369.332 355.812 364.863 362.729 359.958 369.346ZM419.979 446.665H389.33V282.185H419.979V446.665ZM504 234.753H457.35C455.228 234.753 453.193 235.596 451.693 237.096C450.193 238.596 449.35 240.631 449.35 242.753V454.665C449.35 456.787 450.193 458.822 451.693 460.322C453.193 461.822 455.228 462.665 457.35 462.665H504C506.122 462.665 508.157 461.822 509.657 460.322C511.157 458.822 512 456.787 512 454.665V242.753C512 240.631 511.157 238.596 509.657 237.096C508.157 235.596 506.122 234.753 504 234.753ZM496 446.665H465.35V250.753H496V446.665Z" fill="url(#paint0_linear_2_2)"/>
<defs>
<linearGradient id="paint0_linear_2_2" x1="256.002" y1="53.0248" x2="256.002" y2="450.216" gradientUnits="userSpaceOnUse">
<stop stop-color="#00EFD1"/>
<stop offset="1" stop-color="#00ACEA"/>
</linearGradient>
</defs>
</svg>
