<svg width="512" height="512" viewBox="0 0 512 512" fill="none" xmlns="http://www.w3.org/2000/svg">
<path d="M462.091 124.154C444.291 96.3382 405.73 84.7592 353.491 91.5542C350.802 91.9042 348.091 92.3102 345.358 92.7542C344.26 90.2162 343.135 87.7162 341.984 85.2542C319.559 37.5922 289.021 11.3442 256 11.3442C222.979 11.3442 192.441 37.5922 170.013 85.2522C168.858 87.7062 167.737 90.2112 166.639 92.7522C163.909 92.3102 161.195 91.9042 158.506 91.5522C106.27 84.7602 67.706 96.3392 49.906 124.152C32.106 151.965 37.765 191.837 65.826 236.415C69.942 242.957 74.4667 249.485 79.4 256C74.482 262.506 69.9583 269.034 65.829 275.583C37.768 320.161 32.114 360.03 49.909 387.846C64.38 410.465 92.578 422.346 130.7 422.346C140 422.312 149.288 421.677 158.506 420.446C161.195 420.097 163.906 419.691 166.639 419.246C167.739 421.783 168.858 424.288 170.013 426.746C192.441 474.406 222.979 500.654 256 500.654C289.021 500.654 319.559 474.406 341.987 426.746C343.142 424.292 344.266 421.792 345.361 419.246C348.091 419.688 350.805 420.094 353.494 420.446C362.712 421.677 372 422.312 381.3 422.346C419.417 422.346 447.621 410.464 462.091 387.846C479.891 360.03 474.232 320.161 446.171 275.583C442.057 269.043 437.533 262.516 432.6 256C437.518 249.494 442.042 242.967 446.171 236.417C474.232 191.839 479.886 151.97 462.091 124.154ZM184.491 92.0652C204.13 50.3292 229.526 27.3442 256 27.3442C282.474 27.3442 307.869 50.3292 327.51 92.0652C328.095 93.3086 328.672 94.5646 329.24 95.8332C305.658 101.04 280.919 109.422 256 120.58C231.081 109.422 206.342 101.04 182.76 95.8332C183.329 94.5672 183.906 93.3112 184.489 92.0652H184.491ZM359.367 256C359.381 274.347 358.363 292.68 356.318 310.912C342.062 322.46 327.167 333.198 311.705 343.073C293.831 354.538 275.222 364.816 256 373.84C236.779 364.816 218.173 354.539 200.3 343.074C184.838 333.198 169.943 322.46 155.686 310.912C151.621 274.417 151.621 237.583 155.686 201.088C169.943 189.54 184.838 178.803 200.3 168.926C218.173 157.462 236.779 147.184 256 138.16C275.22 147.185 293.827 157.463 311.7 168.927C327.162 178.803 342.057 189.54 356.313 201.088C358.359 219.321 359.379 237.653 359.367 256ZM373.812 216.041C387.594 228.387 400.436 241.744 412.232 256C400.436 270.256 387.594 283.613 373.812 295.959C374.838 282.871 375.367 269.52 375.367 256C375.367 242.48 374.838 229.129 373.812 216.041ZM353.148 333.707C349.465 356.708 343.535 379.292 335.443 401.134C314.845 396.674 294.692 390.362 275.229 382.277C290.692 374.478 305.745 365.891 320.329 356.551C331.718 349.265 342.657 341.651 353.148 333.707ZM236.771 382.277C217.308 390.362 197.154 396.673 176.556 401.134C168.464 379.291 162.534 356.708 158.85 333.707C169.321 341.625 180.262 349.239 191.672 356.551C206.255 365.892 221.308 374.479 236.771 382.277ZM138.188 295.958C124.406 283.612 111.563 270.256 99.767 256C111.563 241.744 124.406 228.388 138.188 216.042C137.161 229.129 136.632 242.48 136.632 256C136.632 269.52 137.161 282.871 138.188 295.958ZM158.85 178.293C162.534 155.293 168.464 132.709 176.556 110.866C197.154 115.327 217.308 121.638 236.771 129.723C221.308 137.522 206.255 146.109 191.671 155.449C180.282 162.735 169.342 170.35 158.85 178.293ZM320.328 155.449C305.744 146.109 290.691 137.522 275.228 129.723C294.691 121.638 314.844 115.327 335.442 110.866C343.534 132.709 349.464 155.293 353.147 178.293C342.678 170.377 331.738 162.762 320.328 155.449ZM79.369 227.893C54.8 188.856 49.12 155.077 63.388 132.776C74.788 114.959 98.165 105.63 130.437 105.63C139.135 105.667 147.822 106.264 156.443 107.417C157.806 107.595 159.175 107.786 160.55 107.99C151.228 133.383 144.477 162.142 140.569 192.816C122.178 208.046 105.161 224.863 89.713 243.071C86.0103 238.021 82.5623 232.961 79.369 227.893ZM156.443 404.583C110.696 410.532 77.653 401.523 63.388 379.224C49.123 356.925 54.797 323.144 79.369 284.107C82.557 279.044 86.005 273.985 89.713 268.929C105.161 287.138 122.178 303.954 140.569 319.184C144.477 349.858 151.228 378.617 160.55 404.01C159.176 404.212 157.807 404.403 156.443 404.583ZM327.51 419.935C307.869 461.671 282.474 484.656 256 484.656C229.526 484.656 204.13 461.671 184.489 419.935C183.904 418.693 183.327 417.437 182.759 416.167C206.341 410.96 231.08 402.578 255.999 391.42C280.919 402.578 305.658 410.96 329.24 416.167C328.67 417.433 328.093 418.689 327.51 419.935ZM432.631 284.107C457.203 323.144 462.88 356.923 448.612 379.224C437.212 397.041 413.834 406.372 381.563 406.37C372.865 406.334 364.178 405.737 355.557 404.583C354.194 404.406 352.824 404.212 351.449 404.01C360.771 378.617 367.522 349.858 371.43 319.184C389.822 303.955 406.839 287.138 422.287 268.929C425.989 273.981 429.437 279.04 432.631 284.107ZM422.287 243.071C406.839 224.862 389.822 208.046 371.43 192.816C367.522 162.142 360.771 133.383 351.449 107.99C352.824 107.79 354.194 107.59 355.557 107.417C401.299 101.469 434.346 110.476 448.612 132.776C462.878 155.076 457.203 188.856 432.631 227.893C429.443 232.956 425.995 238.015 422.287 243.071Z" fill="url(#paint0_linear_1_50)"/>
<path d="M256 177.314C227.68 177.314 197 185.571 197 203.7V308.447C197 326.575 227.753 335 256.039 335H256.614C264.935 334.969 273.236 334.179 281.414 332.64C302.714 328.552 314.997 319.681 314.997 308.446V203.7C315 185.571 284.321 177.314 256 177.314ZM256.073 193.314C282.333 193.314 296.76 200.475 298.759 203.7C296.759 206.925 282.333 214.085 256.073 214.085C229.813 214.085 215.386 206.925 213.387 203.7C215.386 200.475 229.813 193.314 256.073 193.314ZM299 238.314C297 241.414 282.9 248.921 256 248.921C229.1 248.921 215 241.414 213 238.314V222.52C225 227.645 240.625 230.085 256 230.085C271.375 230.085 287 227.645 299 222.52V238.314ZM278.454 316.834C271.038 318.205 263.51 318.874 255.969 318.834C229.115 318.834 215 311.353 213 308.242V292.19C225 297.315 240.625 299.755 256 299.755C271.375 299.755 287 297.315 299 292.19V308.236C298 309.925 292.011 314.231 278.454 316.833V316.834ZM299 273.163C297 276.273 282.855 283.755 256 283.755C229.145 283.755 215 276.273 213 273.163V257.355C225 262.48 240.625 264.92 256 264.92C271.375 264.92 287 262.48 299 257.355V273.163Z" fill="url(#paint1_linear_1_50)"/>
<defs>
<linearGradient id="paint0_linear_1_50" x1="256" y1="15.7112" x2="256" y2="485.916" gradientUnits="userSpaceOnUse">
<stop stop-color="#00EFD1"/>
<stop offset="1" stop-color="#00ACEA"/>
</linearGradient>
<linearGradient id="paint1_linear_1_50" x1="256" y1="15.711" x2="256" y2="485.916" gradientUnits="userSpaceOnUse">
<stop stop-color="#00EFD1"/>
<stop offset="1" stop-color="#00ACEA"/>
</linearGradient>
</defs>
</svg>
