<svg width="512" height="512" viewBox="0 0 512 512" fill="none" xmlns="http://www.w3.org/2000/svg">
<g clip-path="url(#clip0_1_7)">
<path d="M170.667 512C217.771 512 256 473.771 256 426.667V341.333H170.667C123.563 341.333 85.3333 379.563 85.3333 426.667C85.3333 473.771 123.563 512 170.667 512Z" fill="#0ACF83"/>
<path d="M85.3333 256C85.3333 208.896 123.563 170.667 170.667 170.667H256V341.333H170.667C123.563 341.333 85.3333 303.104 85.3333 256Z" fill="#A259FF"/>
<path d="M85.3333 85.3333C85.3333 38.2293 123.563 0 170.667 0H256V170.667H170.667C123.563 170.667 85.3333 132.437 85.3333 85.3333Z" fill="#F24E1E"/>
<path d="M256 0H341.333C388.437 0 426.667 38.2293 426.667 85.3333C426.667 132.437 388.437 170.667 341.333 170.667H256V0Z" fill="#FF7262"/>
<path d="M426.667 256C426.667 303.104 388.437 341.333 341.333 341.333C294.229 341.333 256 303.104 256 256C256 208.896 294.229 170.667 341.333 170.667C388.437 170.667 426.667 208.896 426.667 256Z" fill="#1ABCFE"/>
</g>
<defs>
<clipPath id="clip0_1_7">
<rect width="512" height="512" fill="white"/>
</clipPath>
</defs>
</svg>
