<svg width="512" height="512" viewBox="0 0 512 512" fill="none" xmlns="http://www.w3.org/2000/svg">
<path d="M71.36 460.821L30.272 0H481.728L440.597 460.736L255.723 512L71.36 460.821Z" fill="#E44D26"/>
<path d="M256 472.832L405.397 431.424L440.533 37.6747H256V472.832Z" fill="#F16529"/>
<path d="M256 208.597H181.205L176.043 150.72H256V94.208H114.283L115.627 109.355L129.515 265.109H256V208.597ZM256 355.371L255.744 355.435L192.811 338.432L188.779 293.355H132.053L139.968 382.101L255.744 414.229L256 414.165V355.371Z" fill="#EBEBEB"/>
<path d="M255.808 208.597V265.109H325.397L318.827 338.411L255.787 355.413V414.208L371.648 382.101L372.501 372.544L385.792 223.744L387.179 208.576H371.947L255.808 208.597ZM255.808 94.208V150.72H392.32L393.451 138.005L396.032 109.355L397.376 94.1866L255.808 94.208Z" fill="white"/>
</svg>
