<svg width="512" height="512" viewBox="0 0 512 512" fill="none" xmlns="http://www.w3.org/2000/svg">
<path d="M139.349 417.152C136.235 417.152 133.461 416.96 131.115 416.619V426.944C135.936 428.885 139.925 429.845 143.189 429.845C155.413 429.845 166.677 422.379 176.96 407.36C190.101 387.947 200.725 356.779 208.789 313.941H190.016C186.645 340.245 180.715 364.608 172.203 386.901C172.8 382.443 171.328 374.613 167.829 363.392L152.32 313.941H132.907L154.539 380.053C157.781 389.995 159.445 396.608 159.445 399.829C159.445 404.523 157.355 408.747 153.152 412.523C149.653 415.552 145.067 417.152 139.349 417.152Z" fill="#105E86"/>
<path d="M415.616 283.584V399.381H471.723V385.173H434.496V283.584H415.616Z" fill="#DE8A03"/>
<path d="M22.1867 307.051H22.4L52.2667 399.403H67.3067L97.3867 307.051H97.5573C100.693 335.957 102.677 366.699 103.317 399.403H123.093H123.157C122.219 364.437 119.189 325.781 114.027 283.605H90.6667L61.9307 368.704H61.76L33.28 283.584H8.74667C4.096 319.595 1.17333 358.229 0 399.381H18.0267C18.6027 365.547 19.9893 334.741 22.1867 307.051Z" fill="#105E86"/>
<path d="M398.485 339.328C398.485 300.992 383.168 281.813 352.512 281.813C337.493 281.813 325.76 286.677 317.312 296.427C308.139 307.072 303.531 322.731 303.531 343.445C303.531 363.797 307.584 378.752 315.797 388.245C323.243 396.864 334.507 401.152 349.568 401.152C355.2 401.152 360.363 400.469 365.035 399.083L393.301 415.253L400.981 402.219H400.917L379.243 391.744C381.163 390.165 383.019 388.416 384.704 386.517C393.899 375.915 398.485 360.171 398.485 339.328ZM351.488 386.795C341.995 386.795 335.061 383.296 330.624 376.32L330.667 376.213C325.867 368.683 323.477 356.523 323.477 339.861C323.477 310.699 332.523 296.085 350.571 296.085C360.021 296.085 366.997 299.584 371.413 306.56C376.192 314.133 378.581 326.165 378.581 342.635C378.581 372.032 369.536 386.795 351.488 386.795ZM281.6 342.912C281.6 342.912 264.661 333.376 256.277 328.875C247.061 323.861 242.069 317.931 242.069 311.083C242.069 306.603 244.096 302.955 247.36 300.096C250.603 297.195 255.275 295.787 261.312 295.787C268.757 295.787 276.331 297.408 284.011 300.608L288.555 290.624C279.595 284.885 269.611 282.048 258.688 282.048C248.021 282.048 239.381 284.928 232.661 290.752C225.984 296.491 222.635 304.043 222.635 313.472C222.635 324.8 227.115 331.712 236.117 338.133C236.117 338.133 252.672 347.435 260.928 351.893C269.845 356.8 274.752 362.688 274.752 369.6C274.752 375.04 272.363 379.392 268.352 382.485C264.299 385.557 258.731 387.093 251.648 387.093C244.032 387.093 235.605 384.853 226.261 380.224L221.205 390.208C232.064 397.397 243.179 401.003 254.763 401.003C267.157 401.003 276.949 397.845 284.309 391.552C291.648 385.28 295.317 377.195 295.317 367.339L295.445 367.403C295.424 356.117 290.837 349.291 281.6 342.912Z" fill="#DE8A03"/>
<path d="M202.859 341.504H185.408C182.08 357.461 177.664 372.608 172.203 386.901C172.8 382.443 171.328 374.613 167.829 363.392L160.96 341.525H141.931L154.539 380.075C157.781 390.016 159.445 396.629 159.445 399.851C159.445 404.544 157.355 408.768 153.152 412.544C149.653 415.595 145.067 417.195 139.349 417.195C136.235 417.195 133.461 417.003 131.115 416.661V426.987C135.936 428.928 139.925 429.888 143.189 429.888C155.413 429.888 166.677 422.421 176.96 407.403C187.093 392.384 195.733 370.411 202.859 341.504Z" fill="#0E5275"/>
<path d="M434.496 341.504H415.616V399.381H471.723V385.173H434.496V341.504Z" fill="#C17803"/>
<path d="M19.9467 341.504H2.92267C1.536 360.192 0.576 379.499 0 399.381H18.0267C18.368 378.987 19.008 359.68 19.9467 341.504ZM86.1653 341.504H71.104L61.9307 368.683H61.76L52.6507 341.504H33.5573L52.2667 399.403H67.3067L86.1653 341.504ZM119.957 341.504H100.672C102.037 360.085 102.933 379.371 103.317 399.403H123.093H123.157C122.667 381.099 121.6 361.792 119.957 341.504Z" fill="#0E5275"/>
<path d="M398.464 341.504H378.581C378.581 341.888 378.581 342.272 378.581 342.656C378.581 372.053 369.536 386.795 351.488 386.795C341.995 386.795 335.061 383.296 330.624 376.32L330.667 376.213C326.016 368.917 323.648 357.333 323.477 341.504H303.531C303.531 342.144 303.509 342.784 303.509 343.445C303.509 363.797 307.563 378.752 315.776 388.245C323.221 396.864 334.485 401.152 349.547 401.152C355.179 401.152 360.341 400.469 365.013 399.083L393.28 415.253L400.96 402.219H400.896L379.221 391.744C381.141 390.165 382.997 388.416 384.683 386.517C393.579 376.299 398.165 361.259 398.464 341.504ZM279.083 341.504H242.155C247.723 344.619 255.872 349.163 260.928 351.872C269.845 356.779 274.752 362.667 274.752 369.579C274.752 375.019 272.363 379.371 268.352 382.464C264.299 385.536 258.731 387.072 251.648 387.072C244.032 387.072 235.605 384.832 226.261 380.203L221.205 390.187C232.064 397.376 243.179 400.981 254.763 400.981C267.157 400.981 276.949 397.824 284.309 391.531C291.648 385.259 295.317 377.173 295.317 367.317L295.445 367.381C295.445 356.117 290.859 349.312 281.621 342.933C281.621 342.933 280.64 342.379 279.083 341.504Z" fill="#C17803"/>
<path d="M349.995 123.072C347.541 123.072 345.856 123.349 344.128 123.755V124.032H344.427C345.579 126.208 347.541 127.808 348.992 129.749C350.144 131.968 351.125 134.229 352.277 136.448L352.555 136.128C354.56 134.741 355.563 132.523 355.563 129.152L353.856 126.229L350.016 123.008L349.995 123.072Z" fill="#105E86"/>
<path d="M505.493 281.6C501.355 276.16 496.213 271.403 490.667 267.477C486.101 264.405 476.117 260.139 474.24 254.997L473.963 254.699C477.077 254.421 480.789 253.312 483.776 252.48C488.619 251.2 493.056 251.499 498.069 250.261C500.331 249.707 502.613 249.003 504.875 248.299V247.019C502.315 244.523 500.395 241.109 497.749 238.763C490.496 232.597 482.453 226.581 474.197 221.547C469.717 218.731 464.043 216.939 459.328 214.549L453.781 211.883C451.221 208.832 449.728 204.779 447.915 201.131C443.819 193.429 439.808 184.896 436.245 176.747C433.685 171.264 432.128 165.824 428.992 160.768C414.272 136.96 398.336 122.539 373.824 108.416C368.555 105.493 362.24 104.235 355.563 102.699C352 102.528 348.437 102.272 344.896 102.123C342.549 101.141 340.288 98.4747 338.283 97.1947C330.176 92.1814 309.184 81.28 303.211 95.7014C299.371 104.789 308.907 113.749 312.235 118.379C314.688 121.579 317.781 125.248 319.488 128.832C320.491 131.285 320.768 133.76 321.771 136.299C324.032 142.464 326.187 149.333 329.173 155.093C330.731 158.037 332.437 161.088 334.443 163.733C335.595 165.291 337.557 165.995 338.005 168.491C336 171.349 335.872 175.488 334.72 178.965C329.6 194.816 331.605 214.421 338.859 226.091C341.141 229.568 346.581 237.291 353.856 234.325C360.256 231.829 358.848 223.851 360.683 216.853L361.707 212.928V213.248C363.712 217.195 365.717 220.928 367.552 224.875C371.947 231.723 379.627 238.848 386.048 243.627C389.461 246.123 392.171 250.475 396.437 252.032V251.627H396.117L392.832 248.832C390.272 246.315 387.392 243.221 385.365 240.469C379.392 232.576 374.123 223.893 369.429 214.955C367.083 210.56 365.12 205.824 363.243 201.493L360.96 196.395C358.827 199.445 355.691 202.112 354.133 205.888C351.424 211.904 351.147 219.328 350.123 227.029L349.547 227.328C344.981 226.24 343.424 221.611 341.717 217.707C337.451 207.744 336.747 191.765 340.437 180.309C341.44 177.387 345.707 168.107 344 165.333C343.104 162.667 340.288 161.131 338.731 158.976C336.875 156.373 334.891 152.981 333.611 150.037C330.197 142.208 328.491 133.525 324.779 125.675C323.072 122.048 320.085 118.251 317.653 114.944C314.944 111.168 311.957 108.501 309.803 104.043L309.227 98.304L311.232 96.4054L320.235 97.7067C325.504 99.8187 329.941 101.76 334.357 104.704C336.363 106.091 338.517 108.757 341.077 109.44H344.064C348.629 110.421 353.771 109.739 358.037 110.976C365.611 113.365 372.437 116.843 378.56 120.597C397.248 132.245 412.608 148.757 423.04 168.469C424.747 171.691 425.493 174.656 427.051 178.005C430.037 184.917 433.728 191.872 436.757 198.571C439.744 205.184 442.624 211.883 446.912 217.365C449.045 220.288 457.621 221.824 461.461 223.339C464.299 224.619 468.715 225.771 471.275 227.285C476.181 230.229 480.96 233.579 485.568 236.8C487.915 238.379 495.019 241.877 495.445 244.715C484.032 244.416 475.179 245.547 467.776 248.661C465.643 249.493 462.229 249.493 461.931 252.16L464.277 256.64C465.984 259.435 468.928 263.211 471.659 265.173C474.645 267.477 477.632 269.696 480.768 271.659C486.315 275.008 492.608 276.992 498.048 280.363C501.141 282.325 504.299 284.821 507.435 286.912C508.992 287.957 509.995 289.835 512 290.517V290.069L509.76 285.589L505.493 281.6Z" fill="#105E86"/>
<path d="M350.016 123.029L349.973 123.072C347.52 123.072 345.835 123.349 344.107 123.755V124.032H344.405C345.557 126.208 347.52 127.808 348.971 129.749C350.123 131.968 351.104 134.229 352.256 136.448L352.533 136.128C354.539 134.741 355.541 132.523 355.541 129.152L353.835 126.229L350.016 123.029Z" fill="#0E5275"/>
<path d="M314.56 88.4907C309.675 88.4907 305.451 90.3681 303.232 95.6801C299.392 104.768 308.928 113.728 312.256 118.357C314.709 121.557 317.803 125.227 319.509 128.811C320.512 131.264 320.789 133.739 321.792 136.277C324.053 142.443 326.208 149.312 329.195 155.072C330.752 158.016 332.459 161.067 334.464 163.712C335.616 165.269 337.579 165.973 338.027 168.469C336.021 171.328 335.893 175.467 334.741 178.944C329.621 194.795 331.627 214.4 338.88 226.069C340.8 229.013 344.981 234.965 350.613 234.965C351.659 234.965 352.747 234.773 353.877 234.304C360.277 231.808 358.869 223.829 360.704 216.832L361.728 212.907V213.227C363.733 217.173 365.739 220.907 367.573 224.853C371.968 231.701 379.648 238.827 386.069 243.605C389.483 246.101 392.192 250.453 396.459 252.011V251.605H396.139L392.853 248.811C390.293 246.293 387.413 243.2 385.387 240.448C379.413 232.555 374.144 223.872 369.451 214.933C367.104 210.539 365.141 205.803 363.264 201.472L360.96 196.395C358.827 199.445 355.691 202.112 354.133 205.888C351.424 211.904 351.147 219.328 350.123 227.029L349.547 227.328C344.981 226.24 343.424 221.611 341.717 217.707C337.451 207.744 336.747 191.765 340.437 180.309C341.44 177.387 345.707 168.107 344 165.333C343.104 162.667 340.288 161.131 338.731 158.976C336.875 156.373 334.891 152.981 333.611 150.037C330.197 142.208 328.491 133.525 324.779 125.675C323.072 122.048 320.085 118.251 317.653 114.944C314.944 111.168 311.957 108.501 309.803 104.043L309.227 98.3041L311.232 96.4054L320.235 97.7067C325.504 99.8187 329.941 101.76 334.357 104.704C336.363 106.091 338.517 108.757 341.077 109.44H344.064C348.629 110.421 353.771 109.739 358.037 110.976C365.611 113.365 372.437 116.843 378.56 120.597C385.28 124.8 391.595 129.621 397.376 134.997V124.267C390.421 118.656 382.677 113.515 373.824 108.416C368.555 105.493 362.24 104.235 355.563 102.699C352 102.528 348.437 102.272 344.896 102.123C342.549 101.141 340.288 98.4747 338.283 97.1947C333.184 94.0161 322.923 88.4907 314.56 88.4907Z" fill="#0E5275"/>
</svg>
