<svg width="512" height="512" viewBox="0 0 512 512" fill="none" xmlns="http://www.w3.org/2000/svg">
<path d="M408.832 256.144H72.832C63.9954 256.144 56.832 263.307 56.832 272.144V408.144C56.832 416.98 63.9954 424.144 72.832 424.144H408.832C417.669 424.144 424.832 416.98 424.832 408.144V272.144C424.832 263.307 417.669 256.144 408.832 256.144Z" fill="#044388"/>
<path d="M262.488 218.48C261.491 217.601 260.309 216.957 259.03 216.595C257.751 216.233 256.407 216.162 255.097 216.387C253.787 216.613 252.544 217.129 251.46 217.898C250.376 218.668 249.478 219.67 248.832 220.832V184.144C248.832 182.022 247.989 179.987 246.489 178.487C244.989 176.986 242.954 176.144 240.832 176.144C238.71 176.144 236.675 176.986 235.175 178.487C233.675 179.987 232.832 182.022 232.832 184.144V220.832L230.488 218.488C228.979 217.03 226.958 216.224 224.861 216.242C222.763 216.26 220.757 217.102 219.273 218.585C217.79 220.068 216.949 222.075 216.931 224.172C216.912 226.27 217.719 228.291 219.176 229.8L235.176 245.8C236.684 247.284 238.716 248.116 240.832 248.116C242.948 248.116 244.98 247.284 246.488 245.8L262.488 229.8C263.988 228.299 264.83 226.265 264.83 224.144C264.83 222.022 263.988 219.988 262.488 218.488V218.48Z" fill="#044388"/>
<path opacity="0.1" d="M232.832 184.144H248.832V200.144H232.832V184.144Z" fill="black"/>
<path d="M408.832 24.1436H72.832C63.9954 24.1436 56.832 31.307 56.832 40.1436V176.144C56.832 184.98 63.9954 192.144 72.832 192.144H408.832C417.669 192.144 424.832 184.98 424.832 176.144V40.1436C424.832 31.307 417.669 24.1436 408.832 24.1436Z" fill="#168FD6"/>
<path opacity="0.1" d="M232.832 64.1436H112.832C110.71 64.1436 108.675 63.3007 107.175 61.8004C105.675 60.3001 104.832 58.2653 104.832 56.1436C104.832 54.0218 105.675 51.987 107.175 50.4867C108.675 48.9864 110.71 48.1436 112.832 48.1436H232.832C234.954 48.1436 236.989 48.9864 238.489 50.4867C239.989 51.987 240.832 54.0218 240.832 56.1436C240.832 58.2653 239.989 60.3001 238.489 61.8004C236.989 63.3007 234.954 64.1436 232.832 64.1436ZM296.832 104.144H112.832C110.71 104.144 108.675 103.301 107.175 101.8C105.675 100.3 104.832 98.2653 104.832 96.1436C104.832 94.0218 105.675 91.987 107.175 90.4867C108.675 88.9864 110.71 88.1436 112.832 88.1436H296.832C298.954 88.1436 300.989 88.9864 302.489 90.4867C303.989 91.987 304.832 94.0218 304.832 96.1436C304.832 98.2653 303.989 100.3 302.489 101.8C300.989 103.301 298.954 104.144 296.832 104.144ZM176.832 144.144H112.832C110.71 144.144 108.675 143.301 107.175 141.8C105.675 140.3 104.832 138.265 104.832 136.144C104.832 134.022 105.675 131.987 107.175 130.487C108.675 128.986 110.71 128.144 112.832 128.144H176.832C178.954 128.144 180.989 128.986 182.489 130.487C183.989 131.987 184.832 134.022 184.832 136.144C184.832 138.265 183.989 140.3 182.489 141.8C180.989 143.301 178.954 144.144 176.832 144.144ZM232.832 296.144H112.832C110.71 296.144 108.675 295.301 107.175 293.8C105.675 292.3 104.832 290.265 104.832 288.144C104.832 286.022 105.675 283.987 107.175 282.487C108.675 280.986 110.71 280.144 112.832 280.144H232.832C234.954 280.144 236.989 280.986 238.489 282.487C239.989 283.987 240.832 286.022 240.832 288.144C240.832 290.265 239.989 292.3 238.489 293.8C236.989 295.301 234.954 296.144 232.832 296.144ZM296.832 336.144H112.832C110.71 336.144 108.675 335.301 107.175 333.8C105.675 332.3 104.832 330.265 104.832 328.144C104.832 326.022 105.675 323.987 107.175 322.487C108.675 320.986 110.71 320.144 112.832 320.144H296.832C298.954 320.144 300.989 320.986 302.489 322.487C303.989 323.987 304.832 326.022 304.832 328.144C304.832 330.265 303.989 332.3 302.489 333.8C300.989 335.301 298.954 336.144 296.832 336.144Z" fill="black"/>
<path d="M232.832 72.1436H112.832C110.71 72.1436 108.675 71.3007 107.175 69.8004C105.675 68.3001 104.832 66.2653 104.832 64.1436C104.832 62.0218 105.675 59.987 107.175 58.4867C108.675 56.9864 110.71 56.1436 112.832 56.1436H232.832C234.954 56.1436 236.989 56.9864 238.489 58.4867C239.989 59.987 240.832 62.0218 240.832 64.1436C240.832 66.2653 239.989 68.3001 238.489 69.8004C236.989 71.3007 234.954 72.1436 232.832 72.1436ZM296.832 112.144H112.832C110.71 112.144 108.675 111.301 107.175 109.8C105.675 108.3 104.832 106.265 104.832 104.144C104.832 102.022 105.675 99.987 107.175 98.4867C108.675 96.9864 110.71 96.1436 112.832 96.1436H296.832C298.954 96.1436 300.989 96.9864 302.489 98.4867C303.989 99.987 304.832 102.022 304.832 104.144C304.832 106.265 303.989 108.3 302.489 109.8C300.989 111.301 298.954 112.144 296.832 112.144ZM176.832 152.144H112.832C110.71 152.144 108.675 151.301 107.175 149.8C105.675 148.3 104.832 146.265 104.832 144.144C104.832 142.022 105.675 139.987 107.175 138.487C108.675 136.986 110.71 136.144 112.832 136.144H176.832C178.954 136.144 180.989 136.986 182.489 138.487C183.989 139.987 184.832 142.022 184.832 144.144C184.832 146.265 183.989 148.3 182.489 149.8C180.989 151.301 178.954 152.144 176.832 152.144ZM232.832 304.144H112.832C110.71 304.144 108.675 303.301 107.175 301.8C105.675 300.3 104.832 298.265 104.832 296.144C104.832 294.022 105.675 291.987 107.175 290.487C108.675 288.986 110.71 288.144 112.832 288.144H232.832C234.954 288.144 236.989 288.986 238.489 290.487C239.989 291.987 240.832 294.022 240.832 296.144C240.832 298.265 239.989 300.3 238.489 301.8C236.989 303.301 234.954 304.144 232.832 304.144ZM296.832 344.144H112.832C110.71 344.144 108.675 343.301 107.175 341.8C105.675 340.3 104.832 338.265 104.832 336.144C104.832 334.022 105.675 331.987 107.175 330.487C108.675 328.986 110.71 328.144 112.832 328.144H296.832C298.954 328.144 300.989 328.986 302.489 330.487C303.989 331.987 304.832 334.022 304.832 336.144C304.832 338.265 303.989 340.3 302.489 341.8C300.989 343.301 298.954 344.144 296.832 344.144Z" fill="white"/>
<path opacity="0.1" d="M424.832 40.1436V168.144C340.008 165.016 340.072 43.2396 424.832 40.1436Z" fill="black"/>
<path d="M488.832 112.144C488.832 129.117 482.089 145.396 470.087 157.398C458.084 169.401 441.806 176.144 424.832 176.144C340.032 173.008 340.056 51.2636 424.832 48.1436C441.806 48.1436 458.084 54.8864 470.087 66.8887C482.089 78.891 488.832 95.1697 488.832 112.144Z" fill="#CCDDE7"/>
<path d="M416.832 136.144C415.781 136.145 414.741 135.938 413.77 135.536C412.8 135.134 411.918 134.544 411.176 133.8L395.176 117.8C393.719 116.291 392.912 114.27 392.931 112.173C392.949 110.075 393.79 108.069 395.273 106.585C396.757 105.102 398.763 104.261 400.861 104.242C402.958 104.224 404.979 105.031 406.488 106.488L416.832 116.832L443.176 90.4879C444.685 89.0306 446.706 88.2243 448.803 88.2425C450.901 88.2607 452.907 89.1021 454.391 90.5853C455.874 92.0686 456.715 94.0751 456.733 96.1727C456.752 98.2702 455.945 100.291 454.488 101.8L422.488 133.8C421.746 134.544 420.864 135.134 419.894 135.536C418.923 135.938 417.883 136.145 416.832 136.144Z" fill="#168FD6"/>
<path opacity="0.1" d="M194.112 420.224L191.872 424.144H72.832C68.5924 424.131 64.5301 422.441 61.5323 419.443C58.5344 416.446 56.8447 412.383 56.832 408.144V334.144L66.512 339.744C72.032 342.544 76.512 335.824 81.632 334.304C82.6578 333.833 83.527 333.077 84.1367 332.127C84.7464 331.177 85.071 330.072 85.072 328.944V309.984C85.0847 308.425 85.715 306.935 86.8248 305.84C87.9345 304.745 89.4331 304.135 90.992 304.144H127.072C128.631 304.135 130.129 304.745 131.239 305.84C132.349 306.935 132.979 308.425 132.992 309.984V328.944C132.993 330.072 133.318 331.177 133.927 332.127C134.537 333.077 135.406 333.833 136.432 334.304C141.552 335.824 146.032 342.544 151.552 339.744L168.032 330.224C169.38 329.453 170.979 329.247 172.478 329.652C173.977 330.057 175.255 331.039 176.032 332.384L194.112 363.664C194.883 365.025 195.088 366.634 194.684 368.145C194.28 369.656 193.299 370.949 191.952 371.744L175.552 381.184C171.472 383.424 172.992 388.224 172.912 391.984C172.992 395.744 171.472 400.464 175.552 402.704L191.952 412.144C193.296 412.942 194.274 414.234 194.678 415.744C195.082 417.254 194.878 418.862 194.112 420.224Z" fill="black"/>
<path d="M172.888 400.055C172.968 396.295 171.488 391.503 175.536 389.311L191.968 379.823C192.635 379.438 193.22 378.925 193.689 378.313C194.158 377.702 194.502 377.004 194.702 376.259C194.901 375.515 194.951 374.739 194.85 373.975C194.749 373.211 194.498 372.474 194.112 371.807L176.032 340.495C175.647 339.827 175.135 339.241 174.524 338.771C173.913 338.302 173.215 337.957 172.47 337.757C171.726 337.557 170.949 337.506 170.185 337.607C169.42 337.707 168.683 337.957 168.016 338.343L151.576 347.839C146.008 350.671 141.536 343.967 136.456 342.415C135.431 341.946 134.561 341.195 133.947 340.25C133.332 339.306 132.998 338.206 132.984 337.079V318.119C132.985 317.348 132.834 316.584 132.539 315.871C132.244 315.158 131.812 314.51 131.266 313.965C130.721 313.419 130.073 312.987 129.36 312.692C128.647 312.397 127.883 312.246 127.112 312.247H90.952C90.1813 312.247 89.4181 312.399 88.7061 312.694C87.9941 312.989 87.3473 313.422 86.8027 313.967C86.2581 314.513 85.8263 315.16 85.5321 315.873C85.2379 316.585 85.0869 317.348 85.088 318.119V337.079C85.0731 338.207 84.7381 339.307 84.122 340.252C83.5059 341.197 82.634 341.947 81.608 342.415C76.52 343.951 72.064 350.679 66.488 347.839L50.048 338.343C49.3805 337.957 48.6436 337.707 47.8792 337.607C47.1149 337.506 46.3383 337.557 45.5938 337.757C44.8493 337.957 44.1514 338.302 43.5403 338.771C42.9291 339.241 42.4166 339.827 42.032 340.495L23.952 371.807C23.5663 372.475 23.316 373.212 23.2155 373.976C23.1149 374.74 23.166 375.517 23.3659 376.261C23.5658 377.006 23.9105 377.704 24.3803 378.315C24.8502 378.926 25.4359 379.439 26.104 379.823L42.528 389.311C46.592 391.511 45.104 396.287 45.176 400.055C45.104 403.815 46.584 408.599 42.536 410.799L26.104 420.279C25.4359 420.664 24.8502 421.176 24.3803 421.787C23.9105 422.399 23.5658 423.096 23.3659 423.841C23.166 424.585 23.1149 425.362 23.2155 426.126C23.316 426.891 23.5663 427.628 23.952 428.295L42.032 459.607C42.4166 460.275 42.9291 460.861 43.5403 461.331C44.1514 461.801 44.8493 462.145 45.5938 462.345C46.3383 462.545 47.1149 462.596 47.8792 462.496C48.6436 462.395 49.3805 462.145 50.048 461.759L66.488 452.263C72.056 449.439 76.536 456.135 81.608 457.687C82.6353 458.156 83.5079 458.907 84.1241 459.854C84.7403 460.8 85.0746 461.902 85.088 463.031V481.991C85.088 483.546 85.7058 485.038 86.8055 486.138C87.9052 487.237 89.3968 487.855 90.952 487.855H127.112C127.883 487.856 128.646 487.705 129.359 487.411C130.071 487.117 130.718 486.685 131.264 486.14C131.809 485.596 132.242 484.949 132.537 484.237C132.832 483.525 132.984 482.762 132.984 481.991V463.031C132.997 461.902 133.332 460.8 133.948 459.854C134.564 458.907 135.437 458.156 136.464 457.687C141.544 456.151 146 449.423 151.584 452.263L168.016 461.759C168.683 462.145 169.42 462.396 170.184 462.497C170.947 462.598 171.724 462.548 172.468 462.349C173.213 462.15 173.911 461.806 174.522 461.337C175.134 460.868 175.647 460.283 176.032 459.615L194.112 428.295C194.498 427.628 194.749 426.892 194.85 426.128C194.951 425.364 194.901 424.587 194.702 423.843C194.502 423.098 194.158 422.4 193.689 421.789C193.22 421.177 192.635 420.664 191.968 420.279L175.536 410.799C171.472 408.591 172.952 403.815 172.888 400.055Z" fill="#CCDDE7"/>
<path d="M150.104 400.056C148.424 454.344 69.624 454.328 67.96 400.056C69.64 345.76 148.44 345.776 150.104 400.056Z" fill="white"/>
</svg>
