<svg width="515" height="512" viewBox="0 0 515 512" fill="none" xmlns="http://www.w3.org/2000/svg">
<path d="M254.827 0.144531C124.655 0.144531 132.783 56.595 132.783 56.595L132.927 115.08H257.148V132.638H83.5885C83.5885 132.638 0.291138 123.191 0.291138 254.534C0.291138 385.881 72.9951 381.223 72.9951 381.223H116.385V320.273C116.385 320.273 114.045 247.569 187.928 247.569H311.133C311.133 247.569 380.354 248.687 380.354 180.67V68.2064C380.354 68.2064 390.867 0.144531 254.827 0.144531ZM186.332 39.4742C189.267 39.4715 192.174 40.0477 194.887 41.1699C197.599 42.292 200.064 43.938 202.14 46.0136C204.215 48.0893 205.861 50.5539 206.983 53.2664C208.106 55.9789 208.682 58.886 208.679 61.8215C208.682 64.7569 208.106 67.664 206.983 70.3765C205.861 73.089 204.215 75.5536 202.14 77.6293C200.064 79.7049 197.599 81.3509 194.887 82.4731C192.174 83.5952 189.267 84.1714 186.332 84.1688C183.396 84.1714 180.489 83.5952 177.777 82.4731C175.064 81.3509 172.6 79.7049 170.524 77.6293C168.448 75.5536 166.802 73.089 165.68 70.3765C164.558 67.664 163.982 64.7569 163.985 61.8215C163.982 58.886 164.558 55.9789 165.68 53.2664C166.802 50.5539 168.448 48.0893 170.524 46.0136C172.6 43.938 175.064 42.292 177.777 41.1699C180.489 40.0477 183.396 39.4715 186.332 39.4742Z" fill="url(#paint0_linear_1_33)"/>
<path d="M258.524 510.245C388.696 510.245 380.569 453.795 380.569 453.795L380.424 395.312H256.201V377.753H429.761C429.761 377.753 513.058 387.2 513.058 255.853C513.058 124.508 440.354 129.166 440.354 129.166H396.965V190.115C396.965 190.115 399.304 262.819 325.421 262.819H202.216C202.216 262.819 132.995 261.7 132.995 329.72V442.185C132.995 442.185 122.484 510.245 258.522 510.245H258.524ZM327.019 470.919C324.084 470.922 321.177 470.346 318.464 469.224C315.752 468.102 313.287 466.456 311.212 464.38C309.136 462.304 307.49 459.84 306.368 457.127C305.246 454.415 304.669 451.508 304.672 448.572C304.669 445.637 305.245 442.729 306.367 440.016C307.489 437.304 309.135 434.839 311.211 432.763C313.287 430.687 315.751 429.041 318.464 427.919C321.176 426.796 324.084 426.22 327.019 426.223C329.955 426.22 332.862 426.796 335.574 427.918C338.287 429.041 340.752 430.687 342.827 432.762C344.903 434.838 346.549 437.303 347.671 440.015C348.793 442.728 349.369 445.635 349.367 448.57C349.369 451.506 348.793 454.413 347.671 457.125C346.549 459.838 344.903 462.302 342.827 464.378C340.752 466.454 338.287 468.1 335.574 469.222C332.862 470.344 329.955 470.922 327.019 470.919Z" fill="url(#paint1_linear_1_33)"/>
<defs>
<linearGradient id="paint0_linear_1_33" x1="4927.96" y1="4588.2" x2="30339.1" y2="29745.9" gradientUnits="userSpaceOnUse">
<stop stop-color="#387EB8"/>
<stop offset="1" stop-color="#366994"/>
</linearGradient>
<linearGradient id="paint1_linear_1_33" x1="7406.25" y1="7971.78" x2="34694.9" y2="33768.6" gradientUnits="userSpaceOnUse">
<stop stop-color="#FFE052"/>
<stop offset="1" stop-color="#FFC331"/>
</linearGradient>
</defs>
</svg>
